<svg width="2261" height="1272" viewBox="0 0 2261 1272" fill="none" xmlns="http://www.w3.org/2000/svg">
<g clip-path="url(#clip0_4176_155515)">
<mask id="mask0_4176_155515" style="mask-type:luminance" maskUnits="userSpaceOnUse" x="0" y="0" width="2261" height="1272">
<path d="M2261 0H0V1272H2261V0Z" fill="white"/>
</mask>
<g mask="url(#mask0_4176_155515)">
<path d="M2261 0.000244141H0V1272H2261V0.000244141Z" fill="#40BCC2"/>
<path d="M2293 -19.9998H-30V1302H2293V-19.9998Z" fill="url(#paint0_radial_4176_155515)"/>
<path opacity="0.35" d="M1748.5 3385C2819.66 3385 3688 2541.95 3688 1502C3688 462.048 2819.66 -381 1748.5 -381C677.344 -381 -191 462.048 -191 1502C-191 2541.95 677.344 3385 1748.5 3385Z" fill="url(#paint1_radial_4176_155515)"/>
<path opacity="0.25" d="M1018.96 1776.11C1745.04 1450.95 2176.45 836.329 1982.54 403.317C1788.62 -29.6946 1042.82 -117.126 316.735 208.033C-409.348 533.192 -840.756 1147.81 -646.842 1580.82C-452.928 2013.84 292.877 2101.27 1018.96 1776.11Z" fill="url(#paint2_radial_4176_155515)"/>
<path opacity="0.25" d="M-498.189 1125.53C229.618 1446.81 974.947 1355.4 1166.55 921.364C1358.15 487.324 923.47 -124.985 195.663 -446.267C-532.145 -767.549 -1277.47 -676.141 -1469.07 -242.101C-1660.68 191.939 -1226 804.248 -498.189 1125.53Z" fill="url(#paint3_radial_4176_155515)"/>
<path opacity="0.3" d="M-1151 30C-1151 465.2 -797.753 818 -362 818C73.7527 818 427 465.2 427 30C427 -405.2 73.7527 -758 -362 -758C-797.753 -758 -1151 -405.2 -1151 30Z" fill="url(#paint4_radial_4176_155515)"/>
</g>
</g>
<defs>
<radialGradient id="paint0_radial_4176_155515" cx="0" cy="0" r="1" gradientUnits="userSpaceOnUse" gradientTransform="translate(712.271 -19.9997) rotate(90) scale(1613.94 2836)">
<stop stop-color="#B3D2D7"/>
<stop offset="1" stop-color="#7FA9B0"/>
</radialGradient>
<radialGradient id="paint1_radial_4176_155515" cx="0" cy="0" r="1" gradientUnits="userSpaceOnUse" gradientTransform="translate(1748.5 1502) rotate(90) scale(1883 1939.5)">
<stop stop-color="#005461"/>
<stop offset="1" stop-color="#7FA9B0" stop-opacity="0"/>
</radialGradient>
<radialGradient id="paint2_radial_4176_155515" cx="0" cy="0" r="1" gradientUnits="userSpaceOnUse" gradientTransform="translate(667.848 992.07) rotate(65.8759) scale(859.066 1440.5)">
<stop stop-color="#40BCC2"/>
<stop offset="1" stop-color="#007C82" stop-opacity="0"/>
</radialGradient>
<radialGradient id="paint3_radial_4176_155515" cx="0" cy="0" r="1" gradientUnits="userSpaceOnUse" gradientTransform="translate(-151.263 339.631) rotate(113.818) scale(859.066 1440.5)">
<stop stop-color="#40BCC2"/>
<stop offset="1" stop-color="#40BCC2" stop-opacity="0"/>
</radialGradient>
<radialGradient id="paint4_radial_4176_155515" cx="0" cy="0" r="1" gradientUnits="userSpaceOnUse" gradientTransform="translate(-362 30) rotate(180) scale(789 788)">
<stop stop-color="#76F6FC"/>
<stop offset="1" stop-color="#A0F6FA" stop-opacity="0"/>
</radialGradient>
<clipPath id="clip0_4176_155515">
<rect width="2261" height="1272" fill="white"/>
</clipPath>
</defs>
</svg>
