<svg width="2261" height="1272" viewBox="0 0 2261 1272" fill="none" xmlns="http://www.w3.org/2000/svg">
<g clip-path="url(#clip0_4176_155503)">
<mask id="mask0_4176_155503" style="mask-type:luminance" maskUnits="userSpaceOnUse" x="0" y="0" width="2261" height="1272">
<path d="M2261 0H0V1272H2261V0Z" fill="white"/>
</mask>
<g mask="url(#mask0_4176_155503)">
<path d="M2261 0H0V1272H2261V0Z" fill="#005461"/>
<path d="M3385 -916H-1147V1660H3385V-916Z" fill="#005461"/>
<path opacity="0.5" d="M1130.5 1336C3572.98 1336 5553 691.962 5553 -102.5C5553 -896.962 3572.98 -1541 1130.5 -1541C-1311.98 -1541 -3292 -896.962 -3292 -102.5C-3292 691.962 -1311.98 1336 1130.5 1336Z" fill="url(#paint0_radial_4176_155503)"/>
<path opacity="0.33" d="M1372 1680C2383.79 1680 3204 942.389 3204 32.5C3204 -877.389 2383.79 -1615 1372 -1615C360.214 -1615 -460 -877.389 -460 32.5C-460 942.389 360.214 1680 1372 1680Z" fill="url(#paint1_radial_4176_155503)"/>
<path opacity="0.5" d="M605 715C1380.96 715 2010 223.856 2010 -382C2010 -987.856 1380.96 -1479 605 -1479C-170.96 -1479 -800 -987.856 -800 -382C-800 223.856 -170.96 715 605 715Z" fill="url(#paint2_radial_4176_155503)"/>
</g>
</g>
<defs>
<radialGradient id="paint0_radial_4176_155503" cx="0" cy="0" r="1" gradientUnits="userSpaceOnUse" gradientTransform="translate(1130.5 -102.5) rotate(90) scale(1438.5 4422.5)">
<stop stop-color="#407F89"/>
<stop offset="1" stop-color="#407F89" stop-opacity="0"/>
</radialGradient>
<radialGradient id="paint1_radial_4176_155503" cx="0" cy="0" r="1" gradientUnits="userSpaceOnUse" gradientTransform="translate(1372 32.5) rotate(90) scale(1647.5 1832)">
<stop stop-color="#84E8ED"/>
<stop offset="0.487726" stop-color="#1DACB4"/>
<stop offset="0.836692" stop-color="#005461" stop-opacity="0"/>
</radialGradient>
<radialGradient id="paint2_radial_4176_155503" cx="0" cy="0" r="1" gradientUnits="userSpaceOnUse" gradientTransform="translate(485 -85.5) rotate(75.61) scale(746.418 955.986)">
<stop offset="0.0762588" stop-color="#41E1EA"/>
<stop offset="0.492935" stop-color="#007C82"/>
<stop offset="1" stop-color="#11516F" stop-opacity="0"/>
</radialGradient>
<clipPath id="clip0_4176_155503">
<rect width="2261" height="1272" fill="white"/>
</clipPath>
</defs>
</svg>
