<svg width="24" height="24" viewBox="0 0 24 24" fill="none" xmlns="http://www.w3.org/2000/svg">
<g clip-path="url(#clip0_4131_155490)">
<path d="M12 24C5.38245 24 0 18.6176 0 12C0 5.38245 5.38245 0 12 0C18.6176 0 24 5.38245 24 12C24 18.6176 18.6176 24 12 24ZM12 1.33911C6.12351 1.33911 1.33911 6.12351 1.33911 12C1.33911 17.8765 6.12351 22.6609 12 22.6609C17.8765 22.6609 22.6609 17.8765 22.6609 12C22.6609 6.12351 17.8765 1.33911 12 1.33911Z" fill="#00A5AE"/>
<path fill-rule="evenodd" clip-rule="evenodd" d="M12 20.1081C16.478 20.1081 20.1081 16.4779 20.1081 12C20.1081 7.52197 16.478 3.89185 12 3.89185C7.52202 3.89185 3.89189 7.52197 3.89189 12C3.89189 16.4779 7.52202 20.1081 12 20.1081ZM11.3981 17.0314C11.0471 17.0314 10.865 17.3695 10.865 17.6815C10.865 17.9935 11.0991 18.2535 11.3981 18.2665L12.8022 18.2925C13.1662 18.2925 13.4783 18.2535 13.7383 18.1625C13.9853 18.0715 14.2583 17.9155 14.4533 17.6945C14.7654 17.3305 14.9994 16.8754 14.9994 16.3294C14.9994 15.7833 14.7784 15.3543 14.4663 14.9903C14.2713 14.7692 13.9853 14.5872 13.7383 14.4962C13.5303 14.4052 13.2182 14.3662 12.8022 14.3662H12.7372V15.6663H13.0622C13.4783 15.6663 13.7383 16.0563 13.7383 16.3424C13.7383 16.6284 13.5693 17.0184 12.9712 17.0184L11.3981 17.0314ZM8.97988 12.468C8.68086 12.8451 8.53784 13.1701 8.53784 13.7162C8.53784 14.2622 8.75886 14.7042 9.07089 15.0683C9.26591 15.2893 9.52593 15.4713 9.77295 15.5623C9.98097 15.6533 10.293 15.6923 10.709 15.6923H11.3721V14.3922H10.449C9.98097 14.3922 9.77295 14.0022 9.77295 13.7162C9.77295 13.4301 9.98097 13.0401 10.449 13.0401L13.5173 13.0531C13.8683 13.0531 14.2323 13.0011 14.4923 12.9101C14.7394 12.8191 15.0124 12.6631 15.2204 12.39C15.5064 12.026 15.6624 11.623 15.6624 11.0769C15.6624 10.5309 15.4154 10.0368 15.0904 9.68582C14.8694 9.4648 14.4403 9.08777 13.5173 9.11377H12.7242V10.4139H13.7773C14.3233 10.4139 14.5053 10.8039 14.5053 11.0899C14.5053 11.376 14.2973 11.766 13.7383 11.766L10.709 11.74C10.345 11.74 9.98097 11.779 9.68194 11.935C9.47392 12.039 9.1879 12.195 8.97988 12.468ZM8.32983 7.0856C8.0178 7.44963 7.78378 7.90467 7.78378 8.45071C7.78378 8.99676 8.0438 9.4778 8.34283 9.85483C8.52484 10.0758 8.79787 10.2189 9.04489 10.3099C9.25291 10.4009 9.56493 10.4399 9.98097 10.4399H11.3591V9.13977H9.70794C9.2399 9.13977 9.03189 8.74974 9.03189 8.46371C9.03189 8.17769 9.2269 7.78766 9.77295 7.78766H10.774H11.3721H12.4382H12.7892H15.3114L16.1825 6.48755H12.4382H11.3721H9.99397C9.64294 6.48755 9.33091 6.51355 9.07089 6.60456C8.81087 6.69557 8.52484 6.86458 8.32983 7.0856Z" fill="#F25F5C"/>
</g>
<defs>
<clipPath id="clip0_4131_155490">
<rect width="24" height="24" fill="white"/>
</clipPath>
</defs>
</svg>
